<?xml version="1.0" encoding="utf-8"?>
<svg width="66.361" height="63.543" viewBox="0 0 66.361 63.543" fill="none" xmlns="http://www.w3.org/2000/svg">
  <path d="M33.1805 0C32.8794 0 32.58 0.0953989 32.3246 0.289005L0.52651 25.1136C-0.0673323 25.5839 -0.177782 26.4527 0.292226 27.0612C0.761823 27.6558 1.63035 27.7663 2.2391 27.2962L4.14788 25.8052L4.14788 62.1605C4.14788 62.9211 4.76952 63.5434 5.53048 63.5434L24.8855 63.5434L24.8855 38.651L41.4759 38.651L41.4759 63.5434L60.8308 63.5434C61.591 63.5434 62.213 62.9211 62.213 62.1605L62.213 25.8052L64.1223 27.2962C64.3847 27.4898 64.6738 27.5879 64.9773 27.5879C65.3927 27.5879 65.7923 27.4069 66.0685 27.0612C66.5386 26.4527 66.4286 25.5839 65.8341 25.1136L34.0363 0.289005C33.7801 0.0953989 33.4808 0 33.1805 0L33.1805 0Z" fill="#FFFFFF" fill-rule="evenodd" transform="translate(0 -0)" />
</svg>