<?xml version="1.0" encoding="utf-8"?>
<svg width="365" height="366.625" viewBox="0 0 365 366.625" fill="none" xmlns="http://www.w3.org/2000/svg">
  <g>
    <path d="M0 182.498C0 81.7073 81.708 0 182.5 0C283.292 0 365 81.7073 365 182.498C365 283.289 283.292 364.997 182.5 364.997C81.708 364.997 0 283.289 0 182.498Z" fill="#FFFFFF" fill-rule="evenodd" />
    <path d="M121.301 119.419Q120.172 108.033 111.562 101.728Q102.951 95.4226 88.3647 95.4226Q73.402 95.4226 65.4031 101.539Q57.4041 107.656 57.4041 116.973Q57.2159 127.324 66.2971 132.641Q75.3782 137.958 87.8942 140.875L105.21 145.016Q121.96 148.78 134.994 155.932Q148.027 163.084 155.509 174.33Q162.99 185.575 162.99 201.667Q162.896 228.111 143.181 243.779Q123.466 259.448 88.1765 259.448Q53.0753 259.448 32.1839 243.45Q11.2926 227.452 10.5398 196.209L49.9698 196.209Q51.005 210.701 61.4036 217.994Q71.8022 225.288 87.706 225.288Q103.233 225.288 112.503 218.7Q121.772 212.113 121.866 201.573Q121.772 191.786 113.303 186.516Q104.833 181.246 89.1175 177.482L68.1321 172.212Q43.7589 166.378 29.6431 153.674Q15.5273 140.969 15.6214 119.702Q15.5273 102.198 24.9849 89.0705Q34.4425 75.9428 51.005 68.6497Q67.5675 61.3565 88.647 61.3565Q110.103 61.3565 126.148 68.6967Q142.193 76.0369 151.133 89.1175Q160.073 102.198 160.355 119.419L121.301 119.419Z" fill="#36BE50" transform="translate(91.25 45.625)" />
  </g>
</svg>