<?xml version="1.0" encoding="utf-8"?>
<svg width="96" height="96" viewBox="0 0 96 96" fill="none" xmlns="http://www.w3.org/2000/svg">
  <g>
    <path d="M0 48C0 21.4903 21.4903 0 48 0C74.5097 0 96 21.4903 96 48C96 74.5097 74.5097 96 48 96C21.4903 96 0 74.5097 0 48Z" fill="#36BE50" fill-rule="evenodd" />
    <path d="M41.7347 3.34875L39.1162 14.0006C31.9556 11.8156 26.1666 10.7231 21.7491 10.7231C17.1297 10.7231 14.82 12.1837 14.82 15.105C14.82 15.8769 14.9862 16.5181 15.3187 17.0287C15.6631 17.5394 16.3697 17.9906 17.4384 18.3825C18.5072 18.7744 19.4394 19.0653 20.235 19.2553C21.0425 19.4453 22.4437 19.76 24.4387 20.1994C25.08 20.3538 25.5431 20.4547 25.8281 20.5022C31.5162 21.7134 35.7675 23.4056 38.5819 25.5787C41.4081 27.74 42.8212 31.0294 42.8212 35.4469C42.8212 40.6125 40.9628 44.5669 37.2459 47.31C33.5291 50.0531 28.4822 51.4247 22.1053 51.4247C14.9566 51.4247 7.58812 49.9937 0 47.1319L2.77875 36.2484C10.0225 38.9797 16.2984 40.3928 21.6066 40.4878C26.9503 40.5828 29.6222 39.1697 29.6222 36.2484C29.6222 35.8209 29.5628 35.4231 29.4441 35.055C29.3253 34.6869 29.1175 34.3484 28.8206 34.0397C28.5237 33.7191 28.2387 33.4519 27.9656 33.2381C27.7044 33.0125 27.2828 32.7809 26.7009 32.5434C26.1191 32.2941 25.6441 32.11 25.2759 31.9913C24.9197 31.8725 24.3497 31.7181 23.5659 31.5281C22.7941 31.3263 22.2003 31.1778 21.7847 31.0828C21.3691 30.9759 20.6981 30.8394 19.7719 30.6731C18.8456 30.5069 18.1628 30.3762 17.7234 30.2812C11.9878 29.0581 7.84344 27.3659 5.29031 25.2047C2.73719 23.0434 1.46062 19.8669 1.46062 15.675C1.46062 10.8181 3.27156 6.99438 6.89344 4.20375C10.5153 1.40125 15.4434 0 21.6778 0C28.6722 0 35.3578 1.11625 41.7347 3.34875L41.7347 3.34875Z" fill="#FFFFFF" fill-rule="evenodd" transform="translate(26.35 22.288)" />
  </g>
</svg>