<?xml version="1.0" encoding="utf-8"?>
<svg width="291.228" height="97.194" viewBox="0 0 291.228 97.194" fill="none" xmlns="http://www.w3.org/2000/svg">
  <g>
    <g>
      <path d="M0 48C0 21.4903 21.4903 0 48 0C74.5097 0 96 21.4903 96 48C96 74.5097 74.5097 96 48 96C21.4903 96 0 74.5097 0 48Z" fill="#36BE50" fill-rule="evenodd" />
      <path d="M41.7347 3.34875L39.1162 14.0006C31.9556 11.8156 26.1666 10.7231 21.7491 10.7231C17.1297 10.7231 14.82 12.1837 14.82 15.105C14.82 15.8769 14.9862 16.5181 15.3187 17.0287C15.6631 17.5394 16.3697 17.9906 17.4384 18.3825C18.5072 18.7744 19.4394 19.0653 20.235 19.2553C21.0425 19.4453 22.4437 19.76 24.4387 20.1994C25.08 20.3538 25.5431 20.4547 25.8281 20.5022C31.5162 21.7134 35.7675 23.4056 38.5819 25.5787C41.4081 27.74 42.8212 31.0294 42.8212 35.4469C42.8212 40.6125 40.9628 44.5669 37.2459 47.31C33.5291 50.0531 28.4822 51.4247 22.1053 51.4247C14.9566 51.4247 7.58812 49.9937 0 47.1319L2.77875 36.2484C10.0225 38.9797 16.2984 40.3928 21.6066 40.4878C26.9503 40.5828 29.6222 39.1697 29.6222 36.2484C29.6222 35.8209 29.5628 35.4231 29.4441 35.055C29.3253 34.6869 29.1175 34.3484 28.8206 34.0397C28.5237 33.7191 28.2387 33.4519 27.9656 33.2381C27.7044 33.0125 27.2828 32.7809 26.7009 32.5434C26.1191 32.2941 25.6441 32.11 25.2759 31.9913C24.9197 31.8725 24.3497 31.7181 23.5659 31.5281C22.7941 31.3263 22.2003 31.1778 21.7847 31.0828C21.3691 30.9759 20.6981 30.8394 19.7719 30.6731C18.8456 30.5069 18.1628 30.3762 17.7234 30.2812C11.9878 29.0581 7.84344 27.3659 5.29031 25.2047C2.73719 23.0434 1.46062 19.8669 1.46062 15.675C1.46062 10.8181 3.27156 6.99438 6.89344 4.20375C10.5153 1.40125 15.4434 0 21.6778 0C28.6722 0 35.3578 1.11625 41.7347 3.34875L41.7347 3.34875Z" fill="#FFFFFF" fill-rule="evenodd" transform="translate(26.35 22.288)" />
    </g>
    <path d="M18.1023 57.7848Q13.2205 57.7848 9.66921 55.7001Q6.1179 53.6154 4.19034 49.8755Q2.26278 46.1357 2.26278 41.1911Q2.26278 36.2045 4.19034 32.4647Q6.1179 28.7248 9.66921 26.6401Q13.2205 24.5554 18.1023 24.5554Q22.984 24.5554 26.5353 26.6401Q30.0866 28.7248 32.0142 32.4647Q33.9418 36.2045 33.9418 41.1911Q33.9418 46.1357 32.0142 49.8755Q30.0866 53.6154 26.5353 55.7001Q22.984 57.7848 18.1023 57.7848ZM18.1442 50.8707Q21.4545 50.8707 23.1621 48.1051Q24.8697 45.3395 24.8697 41.1282Q24.8697 36.9169 23.1621 34.1408Q21.4545 31.3647 18.1442 31.3647Q14.771 31.3647 13.0529 34.1408Q11.3349 36.9169 11.3349 41.1282Q11.3349 45.3395 13.0529 48.1051Q14.771 50.8707 18.1442 50.8707ZM48.6918 14.2472L48.6918 57.1563L39.7663 57.1563L39.7663 14.2472L48.6918 14.2472ZM55.8153 57.1563L55.8153 24.9744L64.7408 24.9744L64.7408 57.1563L55.8153 57.1563ZM60.299 20.826Q58.3295 20.826 56.9048 19.4956Q55.4801 18.1651 55.4801 16.3004Q55.4801 14.4357 56.9048 13.1158Q58.3296 11.7958 60.299 11.7958Q62.2894 11.7958 63.7141 13.1158Q65.1389 14.4357 65.1389 16.3004Q65.1389 18.1651 63.7141 19.4956Q62.2894 20.826 60.299 20.826ZM83.723 57.68Q80.0565 57.68 77.1023 55.7839Q74.1481 53.8878 72.4091 50.1898Q70.6701 46.4918 70.6701 41.1072Q70.6701 35.576 72.4615 31.899Q74.2528 28.2219 77.2175 26.3887Q80.1822 24.5554 83.7021 24.5554Q86.4048 24.5554 88.2172 25.4668Q90.0295 26.3782 91.1504 27.7191Q92.2713 29.06 92.858 30.38L93.1303 30.38L93.1303 14.2472L102.035 14.2472L102.035 57.1563L93.2351 57.1563L93.2351 52.0021L92.858 52.0021Q92.2504 53.343 91.098 54.6525Q89.9457 55.962 88.1333 56.821Q86.321 57.68 83.723 57.68ZM86.5515 50.5774Q89.7781 50.5774 91.5485 47.9689Q93.3189 45.3604 93.3189 41.0653Q93.3189 36.7493 91.559 34.2037Q89.799 31.658 86.5515 31.658Q83.2411 31.658 81.5126 34.2665Q79.7841 36.875 79.7841 41.0653Q79.7841 45.2766 81.5231 47.927Q83.2621 50.5774 86.5515 50.5774ZM109.347 57.1563L109.347 24.9744L118.272 24.9744L118.272 57.1563L109.347 57.1563ZM113.831 20.826Q111.861 20.826 110.436 19.4956Q109.012 18.1651 109.012 16.3004Q109.012 14.4357 110.436 13.1158Q111.861 11.7958 113.831 11.7958Q115.821 11.7958 117.246 13.1158Q118.67 14.4357 118.67 16.3004Q118.67 18.1651 117.246 19.4956Q115.821 20.826 113.831 20.826ZM142.702 24.9744L142.702 31.679L136.312 31.679L136.312 57.1563L127.386 57.1563L127.386 31.679L122.84 31.679L122.84 24.9744L127.386 24.9744L127.386 22.6488Q127.386 17.3899 130.393 14.8129Q133.4 12.2358 137.946 12.2358Q139.999 12.2358 141.707 12.5501Q143.414 12.8644 144.252 13.1158L142.681 19.8203Q142.157 19.6527 141.382 19.506Q140.607 19.3594 139.811 19.3594Q137.841 19.3594 137.077 20.2708Q136.312 21.1822 136.312 22.8164L136.312 24.9744L142.702 24.9744ZM153.66 69.2244Q151.963 69.2244 150.486 68.9625Q149.009 68.7006 148.045 68.3026L150.056 61.6399Q152.424 62.3523 154.079 62.0275Q155.734 61.7028 156.614 59.44L157.138 58.0781L145.593 24.9744L154.98 24.9744L161.642 48.608L161.978 48.608L168.703 24.9744L178.152 24.9744L165.644 60.6342Q164.282 64.5313 161.464 66.8778Q158.646 69.2244 153.66 69.2244Z" fill="#000000" transform="translate(103.228 25.194)" />
  </g>
</svg>